{
    "asset": {
        "version": "2.0",
        "generator": "Open Asset Import Library (assimp v5.0.cd42b995)"
    },
    "extensionsUsed": [
        "FB_ngon_encoding"
    ],
    "accessors": [
        {
            "bufferView": 0,
            "byteOffset": 0,
            "componentType": 5126,
            "count": 1471,
            "type": "VEC3",
            "max": [
                124.34077453613281,
                598.8062133789063,
                910.4996337890625
            ],
            "min": [
                -1049.1748046875,
                0.0,
                -55.199615478515628
            ]
        },
        {
            "bufferView": 1,
            "byteOffset": 0,
            "componentType": 5126,
            "count": 1471,
            "type": "VEC3",
            "max": [
                1.0,
                1.0,
                1.0
            ],
            "min": [
                -1.0,
                -1.0,
                -1.0
            ]
        },
        {
            "bufferView": 2,
            "byteOffset": 0,
            "componentType": 5126,
            "count": 1471,
            "type": "VEC2",
            "max": [
                0.99853515625,
                1.0
            ],
            "min": [
                0.0,
                0.008304357528686524
            ]
        },
        {
            "bufferView": 3,
            "byteOffset": 0,
            "componentType": 5125,
            "count": 6114,
            "type": "SCALAR",
            "max": [
                1470
            ],
            "min": [
                0
            ]
        },
        {
            "bufferView": 4,
            "byteOffset": 0,
            "componentType": 5126,
            "count": 555,
            "type": "VEC3",
            "max": [
                -418.8428039550781,
                504.93096923828127,
                907.9996337890625
            ],
            "min": [
                -1043.2548828125,
                259.4037170410156,
                798.6998291015625
            ]
        },
        {
            "bufferView": 5,
            "byteOffset": 0,
            "componentType": 5126,
            "count": 555,
            "type": "VEC3",
            "max": [
                0.9396926164627075,
                0.9396926164627075,
                1.0
            ],
            "min": [
                -0.9396926164627075,
                -0.9396926164627075,
                -1.0
            ]
        },
        {
            "bufferView": 6,
            "byteOffset": 0,
            "componentType": 5126,
            "count": 555,
            "type": "VEC2",
            "max": [
                0.99853515625,
                1.0
            ],
            "min": [
                0.0,
                0.0366588830947876
            ]
        },
        {
            "bufferView": 7,
            "byteOffset": 0,
            "componentType": 5125,
            "count": 2862,
            "type": "SCALAR",
            "max": [
                554
            ],
            "min": [
                0
            ]
        },
        {
            "bufferView": 8,
            "byteOffset": 0,
            "componentType": 5126,
            "count": 120,
            "type": "VEC3",
            "max": [
                124.34077453613281,
                352.6384582519531,
                723.6998291015625
            ],
            "min": [
                112.26460266113281,
                324.17236328125,
                -52.699615478515628
            ]
        },
        {
            "bufferView": 9,
            "byteOffset": 0,
            "componentType": 5126,
            "count": 120,
            "type": "VEC3",
            "max": [
                0.9396926164627075,
                0.9396926164627075,
                1.0
            ],
            "min": [
                -0.9396926164627075,
                -0.9396926164627075,
                -1.0
            ]
        },
        {
            "bufferView": 10,
            "byteOffset": 0,
            "componentType": 5126,
            "count": 120,
            "type": "VEC2",
            "max": [
                0.99853515625,
                1.0
            ],
            "min": [
                0.0,
                0.007863640785217286
            ]
        },
        {
            "bufferView": 11,
            "byteOffset": 0,
            "componentType": 5125,
            "count": 504,
            "type": "SCALAR",
            "max": [
                119
            ],
            "min": [
                0
            ]
        },
        {
            "bufferView": 12,
            "byteOffset": 0,
            "componentType": 5126,
            "count": 889,
            "type": "VEC3",
            "max": [
                -5.24906587600708,
                596.6514892578125,
                723.6998291015625
            ],
            "min": [
                -558.1553344726563,
                375.0981140136719,
                -52.699615478515628
            ]
        },
        {
            "bufferView": 13,
            "byteOffset": 0,
            "componentType": 5126,
            "count": 889,
            "type": "VEC3",
            "max": [
                0.9396926164627075,
                0.9396926164627075,
                1.0
            ],
            "min": [
                -0.9396926164627075,
                -0.9396926164627075,
                -1.0
            ]
        },
        {
            "bufferView": 14,
            "byteOffset": 0,
            "componentType": 5126,
            "count": 889,
            "type": "VEC2",
            "max": [
                0.99853515625,
                1.0
            ],
            "min": [
                0.0,
                0.04107934236526489
            ]
        },
        {
            "bufferView": 15,
            "byteOffset": 0,
            "componentType": 5125,
            "count": 3618,
            "type": "SCALAR",
            "max": [
                888
            ],
            "min": [
                0
            ]
        },
        {
            "bufferView": 16,
            "byteOffset": 0,
            "componentType": 5126,
            "count": 336,
            "type": "VEC3",
            "max": [
                -551.9990844726563,
                598.8062133789063,
                907.9996337890625
            ],
            "min": [
                -1049.1748046875,
                251.4381103515625,
                -52.699615478515628
            ]
        },
        {
            "bufferView": 17,
            "byteOffset": 0,
            "componentType": 5126,
            "count": 336,
            "type": "VEC3",
            "max": [
                0.9396926164627075,
                0.9396926164627075,
                1.0
            ],
            "min": [
                -0.9396926164627075,
                -0.9396926164627075,
                -1.0
            ]
        },
        {
            "bufferView": 18,
            "byteOffset": 0,
            "componentType": 5126,
            "count": 336,
            "type": "VEC2",
            "max": [
                0.99853515625,
                1.0
            ],
            "min": [
                0.0,
                0.006642460823059082
            ]
        },
        {
            "bufferView": 19,
            "byteOffset": 0,
            "componentType": 5125,
            "count": 1584,
            "type": "SCALAR",
            "max": [
                335
            ],
            "min": [
                0
            ]
        },
        {
            "bufferView": 20,
            "byteOffset": 0,
            "componentType": 5126,
            "count": 845,
            "type": "VEC3",
            "max": [
                -713.6670532226563,
                396.87725830078127,
                723.6998291015625
            ],
            "min": [
                -1043.2548828125,
                259.4037170410156,
                -52.699615478515628
            ]
        },
        {
            "bufferView": 21,
            "byteOffset": 0,
            "componentType": 5126,
            "count": 845,
            "type": "VEC3",
            "max": [
                0.9396926164627075,
                0.9396926164627075,
                1.0
            ],
            "min": [
                -0.9396926164627075,
                -0.9396926164627075,
                -1.0
            ]
        },
        {
            "bufferView": 22,
            "byteOffset": 0,
            "componentType": 5126,
            "count": 845,
            "type": "VEC2",
            "max": [
                0.99853515625,
                1.0
            ],
            "min": [
                0.0,
                0.06703746318817139
            ]
        },
        {
            "bufferView": 23,
            "byteOffset": 0,
            "componentType": 5125,
            "count": 3354,
            "type": "SCALAR",
            "max": [
                844
            ],
            "min": [
                0
            ]
        },
        {
            "bufferView": 24,
            "byteOffset": 0,
            "componentType": 5126,
            "count": 4280,
            "type": "VEC3",
            "max": [
                118.42085266113281,
                596.6514892578125,
                907.9996337890625
            ],
            "min": [
                -1043.2548828125,
                -27.0,
                -52.699615478515628
            ]
        },
        {
            "bufferView": 25,
            "byteOffset": 0,
            "componentType": 5126,
            "count": 4280,
            "type": "VEC3",
            "max": [
                1.0,
                1.0,
                1.0
            ],
            "min": [
                -1.0,
                -1.0,
                -1.0
            ]
        },
        {
            "bufferView": 26,
            "byteOffset": 0,
            "componentType": 5126,
            "count": 4280,
            "type": "VEC2",
            "max": [
                1.0,
                1.0
            ],
            "min": [
                0.0,
                0.0
            ]
        },
        {
            "bufferView": 27,
            "byteOffset": 0,
            "componentType": 5125,
            "count": 14196,
            "type": "SCALAR",
            "max": [
                4279
            ],
            "min": [
                0
            ]
        }
    ],
    "buffers": [
        {
            "byteLength": 400800,
            "uri": "result.bin"
        }
    ],
    "bufferViews": [
        {
            "buffer": 0,
            "byteOffset": 0,
            "byteLength": 17652,
            "target": 34962
        },
        {
            "buffer": 0,
            "byteOffset": 17652,
            "byteLength": 17652,
            "target": 34962
        },
        {
            "buffer": 0,
            "byteOffset": 35304,
            "byteLength": 11768,
            "target": 34962
        },
        {
            "buffer": 0,
            "byteOffset": 47072,
            "byteLength": 24456,
            "target": 34963
        },
        {
            "buffer": 0,
            "byteOffset": 71528,
            "byteLength": 6660,
            "target": 34962
        },
        {
            "buffer": 0,
            "byteOffset": 78188,
            "byteLength": 6660,
            "target": 34962
        },
        {
            "buffer": 0,
            "byteOffset": 84848,
            "byteLength": 4440,
            "target": 34962
        },
        {
            "buffer": 0,
            "byteOffset": 89288,
            "byteLength": 11448,
            "target": 34963
        },
        {
            "buffer": 0,
            "byteOffset": 100736,
            "byteLength": 1440,
            "target": 34962
        },
        {
            "buffer": 0,
            "byteOffset": 102176,
            "byteLength": 1440,
            "target": 34962
        },
        {
            "buffer": 0,
            "byteOffset": 103616,
            "byteLength": 960,
            "target": 34962
        },
        {
            "buffer": 0,
            "byteOffset": 104576,
            "byteLength": 2016,
            "target": 34963
        },
        {
            "buffer": 0,
            "byteOffset": 106592,
            "byteLength": 10668,
            "target": 34962
        },
        {
            "buffer": 0,
            "byteOffset": 117260,
            "byteLength": 10668,
            "target": 34962
        },
        {
            "buffer": 0,
            "byteOffset": 127928,
            "byteLength": 7112,
            "target": 34962
        },
        {
            "buffer": 0,
            "byteOffset": 135040,
            "byteLength": 14472,
            "target": 34963
        },
        {
            "buffer": 0,
            "byteOffset": 149512,
            "byteLength": 4032,
            "target": 34962
        },
        {
            "buffer": 0,
            "byteOffset": 153544,
            "byteLength": 4032,
            "target": 34962
        },
        {
            "buffer": 0,
            "byteOffset": 157576,
            "byteLength": 2688,
            "target": 34962
        },
        {
            "buffer": 0,
            "byteOffset": 160264,
            "byteLength": 6336,
            "target": 34963
        },
        {
            "buffer": 0,
            "byteOffset": 166600,
            "byteLength": 10140,
            "target": 34962
        },
        {
            "buffer": 0,
            "byteOffset": 176740,
            "byteLength": 10140,
            "target": 34962
        },
        {
            "buffer": 0,
            "byteOffset": 186880,
            "byteLength": 6760,
            "target": 34962
        },
        {
            "buffer": 0,
            "byteOffset": 193640,
            "byteLength": 13416,
            "target": 34963
        },
        {
            "buffer": 0,
            "byteOffset": 207056,
            "byteLength": 51360,
            "target": 34962
        },
        {
            "buffer": 0,
            "byteOffset": 258416,
            "byteLength": 51360,
            "target": 34962
        },
        {
            "buffer": 0,
            "byteOffset": 309776,
            "byteLength": 34240,
            "target": 34962
        },
        {
            "buffer": 0,
            "byteOffset": 344016,
            "byteLength": 56784,
            "target": 34963
        }
    ],
    "materials": [
        {
            "name": "DefaultMaterial",
            "pbrMetallicRoughness": {
                "baseColorFactor": [
                    0.6000000238418579,
                    0.6000000238418579,
                    0.6000000238418579,
                    1.0
                ],
                "metallicFactor": 0.0
            }
        },
        {
            "name": "diffuse_0",
            "pbrMetallicRoughness": {
                "baseColorFactor": [
                    0.6000000238418579,
                    0.6000000238418579,
                    0.6000000238418579,
                    1.0
                ],
                "metallicFactor": 0.0
            }
        },
        {
            "name": "diffuse_Aqua",
            "pbrMetallicRoughness": {
                "baseColorFactor": [
                    0.6000000238418579,
                    0.6000000238418579,
                    0.6000000238418579,
                    1.0
                ],
                "metallicFactor": 0.0
            }
        },
        {
            "name": "diffuse_Lime",
            "pbrMetallicRoughness": {
                "baseColorFactor": [
                    0.6000000238418579,
                    0.6000000238418579,
                    0.6000000238418579,
                    1.0
                ],
                "metallicFactor": 0.0
            }
        },
        {
            "name": "diffuse_Red",
            "pbrMetallicRoughness": {
                "baseColorFactor": [
                    0.6000000238418579,
                    0.6000000238418579,
                    0.6000000238418579,
                    1.0
                ],
                "metallicFactor": 0.0
            }
        }
    ],
    "meshes": [
        {
            "name": "defaultobject",
            "primitives": [
                {
                    "extensions": {
                        "FB_ngon_encoding": {}
                    },
                    "mode": 4,
                    "material": 1,
                    "indices": 3,
                    "attributes": {
                        "POSITION": 0,
                        "NORMAL": 1,
                        "TEXCOORD_0": 2
                    }
                },
                {
                    "extensions": {
                        "FB_ngon_encoding": {}
                    },
                    "mode": 4,
                    "material": 2,
                    "indices": 7,
                    "attributes": {
                        "POSITION": 4,
                        "NORMAL": 5,
                        "TEXCOORD_0": 6
                    }
                },
                {
                    "extensions": {
                        "FB_ngon_encoding": {}
                    },
                    "mode": 4,
                    "material": 1,
                    "indices": 11,
                    "attributes": {
                        "POSITION": 8,
                        "NORMAL": 9,
                        "TEXCOORD_0": 10
                    }
                },
                {
                    "extensions": {
                        "FB_ngon_encoding": {}
                    },
                    "mode": 4,
                    "material": 3,
                    "indices": 15,
                    "attributes": {
                        "POSITION": 12,
                        "NORMAL": 13,
                        "TEXCOORD_0": 14
                    }
                },
                {
                    "extensions": {
                        "FB_ngon_encoding": {}
                    },
                    "mode": 4,
                    "material": 1,
                    "indices": 19,
                    "attributes": {
                        "POSITION": 16,
                        "NORMAL": 17,
                        "TEXCOORD_0": 18
                    }
                },
                {
                    "extensions": {
                        "FB_ngon_encoding": {}
                    },
                    "mode": 4,
                    "material": 4,
                    "indices": 23,
                    "attributes": {
                        "POSITION": 20,
                        "NORMAL": 21,
                        "TEXCOORD_0": 22
                    }
                },
                {
                    "extensions": {
                        "FB_ngon_encoding": {}
                    },
                    "mode": 4,
                    "material": 1,
                    "indices": 27,
                    "attributes": {
                        "POSITION": 24,
                        "NORMAL": 25,
                        "TEXCOORD_0": 26
                    }
                }
            ]
        }
    ],
    "nodes": [
        {
            "name": "input.obj",
            "children": [
                1
            ]
        },
        {
            "name": "defaultobject",
            "mesh": 0
        }
    ],
    "scenes": [
        {
            "nodes": [
                0
            ]
        }
    ],
    "scene": 0
}