{
  "accessors": [
    {
      "bufferView": 2,
      "componentType": 5126,
      "count": 4228,
      "max": [
        52.98869323730469,
        164.5119171142578,
        21.270620346069336
      ],
      "min": [
        -52.792503356933594,
        18.174537658691406,
        -21.707664489746094
      ],
      "type": "VEC3"
    },
    {
      "bufferView": 2,
      "byteOffset": 50736,
      "componentType": 5126,
      "count": 4228,
      "max": [
        0.9999236464500427,
        0.9573671221733093,
        0.9998993873596191
      ],
      "min": [
        -0.999963641166687,
        -0.9913330078125,
        -0.9997491240501404
      ],
      "type": "VEC3"
    },
    {
      "bufferView": 3,
      "componentType": 5126,
      "count": 4228,
      "max": [
        0.9998499155044556,
        0.9999274611473083,
        0.9992066025733948,
        1.0
      ],
      "min": [
        -0.9948501586914063,
        -0.951882541179657,
        -0.9993451833724976,
        -1.0
      ],
      "type": "VEC4"
    },
    {
      "bufferView": 1,
      "componentType": 5126,
      "count": 4228,
      "max": [
        0.9935770034790039,
        0.9881740212440491
      ],
      "min": [
        0.01006300002336502,
        0.12441500276327133
      ],
      "type": "VEC2"
    },
    {
      "bufferView": 0,
      "componentType": 5125,
      "count": 23931,
      "type": "SCALAR"
    },
    {
      "bufferView": 2,
      "byteOffset": 101472,
      "componentType": 5126,
      "count": 1695,
      "max": [
        19.945384979248047,
        109.99512481689453,
        15.139459609985352
      ],
      "min": [
        -19.945384979248047,
        12.261908531188965,
        -11.089845657348633
      ],
      "type": "VEC3"
    },
    {
      "bufferView": 2,
      "byteOffset": 121812,
      "componentType": 5126,
      "count": 1695,
      "max": [
        0.9999505281448364,
        0.4530082046985626,
        0.9999673366546631
      ],
      "min": [
        -0.9999505281448364,
        -0.8251438140869141,
        -0.9997034668922424
      ],
      "type": "VEC3"
    },
    {
      "bufferView": 3,
      "byteOffset": 67648,
      "componentType": 5126,
      "count": 1695,
      "max": [
        0.8375120162963867,
        0.9999210238456726,
        0.9953275918960571,
        1.0
      ],
      "min": [
        -0.7279912233352661,
        0.04125058650970459,
        -0.6712167263031006,
        1.0
      ],
      "type": "VEC4"
    },
    {
      "bufferView": 1,
      "byteOffset": 33824,
      "componentType": 5126,
      "count": 1695,
      "max": [
        0.8642590045928955,
        0.9925169944763184
      ],
      "min": [
        0.36266401410102844,
        0.4163439869880676
      ],
      "type": "VEC2"
    },
    {
      "bufferView": 0,
      "byteOffset": 95724,
      "componentType": 5125,
      "count": 9510,
      "type": "SCALAR"
    },
    {
      "bufferView": 2,
      "byteOffset": 142152,
      "componentType": 5126,
      "count": 3072,
      "max": [
        23.392654418945313,
        38.31525421142578,
        22.569536209106445
      ],
      "min": [
        -23.392654418945313,
        0.8037340044975281,
        -10.445725440979004
      ],
      "type": "VEC3"
    },
    {
      "bufferView": 2,
      "byteOffset": 179016,
      "componentType": 5126,
      "count": 3072,
      "max": [
        0.9994778633117676,
        0.9965969920158386,
        0.9999551177024841
      ],
      "min": [
        -0.9994778633117676,
        -0.9999997615814209,
        -0.9989154934883118
      ],
      "type": "VEC3"
    },
    {
      "bufferView": 3,
      "byteOffset": 94768,
      "componentType": 5126,
      "count": 3072,
      "max": [
        0.9999083876609802,
        0.9945325255393982,
        0.9986919164657593,
        1.0
      ],
      "min": [
        -0.9999083280563354,
        -0.9976470470428467,
        -0.9984493255615234,
        -1.0
      ],
      "type": "VEC4"
    },
    {
      "bufferView": 1,
      "byteOffset": 47384,
      "componentType": 5126,
      "count": 3072,
      "max": [
        0.9723899960517883,
        0.9394059777259827
      ],
      "min": [
        0.011920000426471233,
        0.014214999973773956
      ],
      "type": "VEC2"
    },
    {
      "bufferView": 0,
      "byteOffset": 133764,
      "componentType": 5125,
      "count": 16782,
      "type": "SCALAR"
    },
    {
      "bufferView": 2,
      "byteOffset": 215880,
      "componentType": 5126,
      "count": 3508,
      "max": [
        55.436702728271484,
        122.0625,
        28.105741500854492
      ],
      "min": [
        -55.436702728271484,
        91.2863540649414,
        -1.3916740417480469
      ],
      "type": "VEC3"
    },
    {
      "bufferView": 2,
      "byteOffset": 257976,
      "componentType": 5126,
      "count": 3508,
      "max": [
        0.999920666217804,
        0.9743070006370544,
        0.9982787370681763
      ],
      "min": [
        -0.999920666217804,
        -0.9973198771476746,
        -0.9852635860443115
      ],
      "type": "VEC3"
    },
    {
      "bufferView": 3,
      "byteOffset": 143920,
      "componentType": 5126,
      "count": 3508,
      "max": [
        0.9967826008796692,
        0.9983291625976563,
        0.9917280673980713,
        1.0
      ],
      "min": [
        -0.9967825412750244,
        -0.9994593858718872,
        -0.9976723194122314,
        -1.0
      ],
      "type": "VEC4"
    },
    {
      "bufferView": 1,
      "byteOffset": 71960,
      "componentType": 5126,
      "count": 3508,
      "max": [
        0.7204800248146057,
        0.24047699570655823
      ],
      "min": [
        0.013104000128805637,
        0.006835999898612499
      ],
      "type": "VEC2"
    },
    {
      "bufferView": 0,
      "byteOffset": 200892,
      "componentType": 5125,
      "count": 18144,
      "type": "SCALAR"
    },
    {
      "bufferView": 2,
      "byteOffset": 300072,
      "componentType": 5126,
      "count": 1974,
      "max": [
        19.850881576538086,
        158.72378540039063,
        16.104286193847656
      ],
      "min": [
        -20.227279663085938,
        116.02125549316406,
        -14.861900329589844
      ],
      "type": "VEC3"
    },
    {
      "bufferView": 2,
      "byteOffset": 323760,
      "componentType": 5126,
      "count": 1974,
      "max": [
        0.9964107871055603,
        0.9862681031227112,
        0.999871551990509
      ],
      "min": [
        -0.9997444748878479,
        -0.972021222114563,
        -0.9999035000801086
      ],
      "type": "VEC3"
    },
    {
      "bufferView": 3,
      "byteOffset": 200048,
      "componentType": 5126,
      "count": 1974,
      "max": [
        0.8675263524055481,
        0.9998802542686462,
        0.9707719087600708,
        1.0
      ],
      "min": [
        -0.7487916946411133,
        -0.9999719262123108,
        -0.9996177554130554,
        1.0
      ],
      "type": "VEC4"
    },
    {
      "bufferView": 1,
      "byteOffset": 100024,
      "componentType": 5126,
      "count": 1974,
      "max": [
        0.8092619776725769,
        0.5204870104789734
      ],
      "min": [
        0.2168080061674118,
        0.0643170028924942
      ],
      "type": "VEC2"
    },
    {
      "bufferView": 0,
      "byteOffset": 273468,
      "componentType": 5125,
      "count": 11040,
      "type": "SCALAR"
    }
  ],
  "asset": {
    "extras": {
      "author": "DEYMAR (https://sketchfab.com/deymar)",
      "license": "CC-BY-4.0 (http://creativecommons.org/licenses/by/4.0/)",
      "source": "https://sketchfab.com/3d-models/free-knight-armor-2k-8009434a1776469ea8cb3225c2d63dfb",
      "title": "free knight armor 2k"
    },
    "generator": "Sketchfab-13.57.0",
    "version": "2.0"
  },
  "bufferViews": [
    {
      "buffer": 0,
      "byteLength": 317628,
      "name": "floatBufferViews",
      "target": 34963
    },
    {
      "buffer": 0,
      "byteLength": 115816,
      "byteOffset": 317628,
      "byteStride": 8,
      "name": "floatBufferViews",
      "target": 34962
    },
    {
      "buffer": 0,
      "byteLength": 347448,
      "byteOffset": 433444,
      "byteStride": 12,
      "name": "floatBufferViews",
      "target": 34962
    },
    {
      "buffer": 0,
      "byteLength": 231632,
      "byteOffset": 780892,
      "byteStride": 16,
      "name": "floatBufferViews",
      "target": 34962
    }
  ],
  "buffers": [
    {
      "byteLength": 1012524,
      "uri": "scene.bin"
    }
  ],
  "images": [
    {
      "uri": "textures/lambert1_baseColor.jpeg"
    },
    {
      "uri": "textures/lambert1_metallicRoughness.png"
    },
    {
      "uri": "textures/lambert1_normal.png"
    }
  ],
  "materials": [
    {
      "doubleSided": true,
      "name": "lambert1",
      "normalTexture": {
        "index": 2
      },
      "pbrMetallicRoughness": {
        "baseColorTexture": {
          "index": 0
        },
        "metallicRoughnessTexture": {
          "index": 1
        }
      }
    }
  ],
  "meshes": [
    {
      "name": "defaultMaterial",
      "primitives": [
        {
          "attributes": {
            "NORMAL": 1,
            "POSITION": 0,
            "TANGENT": 2,
            "TEXCOORD_0": 3
          },
          "indices": 4,
          "material": 0,
          "mode": 4
        }
      ]
    },
    {
      "name": "defaultMaterial",
      "primitives": [
        {
          "attributes": {
            "NORMAL": 6,
            "POSITION": 5,
            "TANGENT": 7,
            "TEXCOORD_0": 8
          },
          "indices": 9,
          "material": 0,
          "mode": 4
        }
      ]
    },
    {
      "name": "defaultMaterial",
      "primitives": [
        {
          "attributes": {
            "NORMAL": 11,
            "POSITION": 10,
            "TANGENT": 12,
            "TEXCOORD_0": 13
          },
          "indices": 14,
          "material": 0,
          "mode": 4
        }
      ]
    },
    {
      "name": "defaultMaterial",
      "primitives": [
        {
          "attributes": {
            "NORMAL": 16,
            "POSITION": 15,
            "TANGENT": 17,
            "TEXCOORD_0": 18
          },
          "indices": 19,
          "material": 0,
          "mode": 4
        }
      ]
    },
    {
      "name": "defaultMaterial",
      "primitives": [
        {
          "attributes": {
            "NORMAL": 21,
            "POSITION": 20,
            "TANGENT": 22,
            "TEXCOORD_0": 23
          },
          "indices": 24,
          "material": 0,
          "mode": 4
        }
      ]
    }
  ],
  "nodes": [
    {
      "children": [
        1
      ],
      "matrix": [
        1.0,
        0.0,
        0.0,
        0.0,
        0.0,
        2.220446049250313e-16,
        -1.0,
        0.0,
        0.0,
        1.0,
        2.220446049250313e-16,
        0.0,
        0.0,
        0.0,
        0.0,
        1.0
      ],
      "name": "Sketchfab_model"
    },
    {
      "children": [
        2
      ],
      "matrix": [
        1.0,
        0.0,
        0.0,
        0.0,
        0.0,
        -4.371139006309477e-08,
        0.999999999999999,
        0.0,
        0.0,
        -0.999999999999999,
        -4.371139006309477e-08,
        0.0,
        0.0,
        0.0,
        0.0,
        1.0
      ],
      "name": "Collada visual scene group"
    },
    {
      "children": [
        3,
        5,
        7,
        9,
        11
      ],
      "name": "group1"
    },
    {
      "children": [
        4
      ],
      "name": "polySurface1"
    },
    {
      "mesh": 0,
      "name": "defaultMaterial"
    },
    {
      "children": [
        6
      ],
      "name": "painta:polySurface1"
    },
    {
      "mesh": 1,
      "name": "defaultMaterial"
    },
    {
      "children": [
        8
      ],
      "name": "boots_retop:polySurface1"
    },
    {
      "mesh": 2,
      "name": "defaultMaterial"
    },
    {
      "children": [
        10
      ],
      "name": "m_tal_nrw_body_lod1_mesh2"
    },
    {
      "mesh": 3,
      "name": "defaultMaterial"
    },
    {
      "children": [
        12
      ],
      "name": "polySurface2"
    },
    {
      "mesh": 4,
      "name": "defaultMaterial"
    }
  ],
  "samplers": [
    {
      "magFilter": 9729,
      "minFilter": 9987,
      "wrapS": 10497,
      "wrapT": 10497
    }
  ],
  "scene": 0,
  "scenes": [
    {
      "name": "Sketchfab_Scene",
      "nodes": [
        0
      ]
    }
  ],
  "textures": [
    {
      "sampler": 0,
      "source": 0
    },
    {
      "sampler": 0,
      "source": 1
    },
    {
      "sampler": 0,
      "source": 2
    }
  ]
}
