# Alias OBJ Model File
# Exported from SketchUp, (c) 2000-2012 Trimble Navigation Limited
# File units = millimeters

mtllib Untitled.mtl

g Mesh1 Group1 Model

usemtl Color_A02
v -339.916 2157.45 1.0516e-12
vt -0.745162 6.93889e-18
vn -0.805554 -0.592523 -2.83106e-16
v -350.581 2171.95 1.02318e-12
vt -0.754686 0
v -350.581 2171.95 -100
vt -0.754686 -0.0327609
v -339.916 2157.45 -100
vt -0.745162 -0.0327609
f 1/1/1 2/2/1 3/3/1 4/4/1 

v -558.381 0 -0
vt 0.178717 0
vn -4.07357e-18 -4.7226e-16 1
v 558.381 0 -0
vt 0.769596 0
v 558.381 115.626 5.68434e-14
vt 0.769596 0.0378803
v 579.117 127.709 5.68434e-14
vt 0.780567 0.0418386
v 629.117 127.709 5.68434e-14
vt 0.807022 0.0418386
v 629.117 194.709 8.52651e-14
vt 0.807022 0.0637885
v 695.221 239.768 2.84217e-14
vt 0.841998 0.0785504
v 747.68 259.364 1.27898e-13
vt 0.869754 0.0849702
v 778.594 270.912 1.84741e-13
vt 0.886111 0.0887533
v 778.594 376.912 2.41585e-13
vt 0.886111 0.12348
v 749.513 492.304 2.27374e-13
vt 0.870724 0.161283
v 769.84 539.078 2.55795e-13
vt 0.881479 0.176607
v 757.042 581.176 2.70006e-13
vt 0.874708 0.190399
v 769.77 648.991 3.12639e-13
vt 0.881442 0.212616
v 810.625 1026.79 4.83169e-13
vt 0.903058 0.336386
v 810.625 1206.79 5.68434e-13
vt 0.903058 0.395355
v 774.616 1378.04 6.53699e-13
vt 0.884006 0.45146
v 704.882 1641.99 7.81597e-13
vt 0.84711 0.537931
v 704.882 1743.99 8.2423e-13
vt 0.84711 0.571347
v 620.107 1894.79 9.9476e-13
vt 0.802255 0.620752
v 538.324 2081.68 9.80549e-13
vt 0.758984 0.681979
v 483.877 2137.53 1.00897e-12
vt 0.730176 0.700277
v 257.557 2214.35 1.0516e-12
vt 0.61043 0.725442
v 152.556 2234.93 1.0516e-12
vt 0.554874 0.732185
v 118.556 2234.93 1.0516e-12
vt 0.536884 0.732185
v 43.1476 2250.51 1.06581e-12
vt 0.496986 0.737288
v 24.2184 2274.7 1.08002e-12
vt 0.48697 0.745214
v -7.80561 2320.64 1.09424e-12
vt 0.470026 0.760264
v -7.80561 2393.64 1.12266e-12
vt 0.470026 0.784179
v 52.4274 2492.78 1.1795e-12
vt 0.501895 0.816657
v 52.4274 2668.78 1.26477e-12
vt 0.501895 0.874317
v 24.2184 2668.78 1.26477e-12
vt 0.48697 0.874317
v 24.2184 2773.78 1.3074e-12
vt 0.48697 0.908716
v -59.8282 2943.06 1.39266e-12
vt 0.442501 0.964175
v -127.452 2975.5 1.40687e-12
vt 0.406721 0.974801
v -186.996 2992.77 1.40687e-12
vt 0.375216 0.980461
v -255.996 2992.77 1.40687e-12
vt 0.338709 0.980461
v -367.141 2972.38 1.40687e-12
vt 0.279902 0.97378
v -461.736 2901.84 1.36424e-12
vt 0.229851 0.950671
v -529.882 2801.86 1.32161e-12
vt 0.193795 0.917915
v -537.86 2727.28 1.29319e-12
vt 0.189574 0.893483
v -530.935 2654.61 1.25056e-12
vt 0.193238 0.869676
v -513.417 2608.85 1.23634e-12
vt 0.202507 0.854684
v -513.417 2586.22 1.22213e-12
vt 0.202507 0.84727
v -506.943 2568.35 1.20792e-12
vt 0.205932 0.841417
v -520.943 2568.35 1.20792e-12
vt 0.198525 0.841417
v -526.027 2558.6 1.19371e-12
vt 0.195835 0.838222
v -516.969 2544.21 1.19371e-12
vt 0.200628 0.833509
v -516.969 2530.54 1.19371e-12
vt 0.200628 0.82903
v -506.943 2530.54 1.19371e-12
vt 0.205932 0.82903
v -506.943 2479.54 1.16529e-12
vt 0.205932 0.812322
v -493.847 2439.64 1.15108e-12
vt 0.212862 0.799248
v -479.847 2439.64 1.15108e-12
vt 0.220269 0.799248
v -445.767 2293.56 1.08002e-12
vt 0.238301 0.751392
v -403.791 2255 1.06581e-12
vt 0.26051 0.738759
v -350.581 2229.51 1.0516e-12
vt 0.288663 0.730408
vt 0.288663 0.711551
vt 0.294306 0.7068
v -492.329 2061.69 9.66338e-13
vt 0.213664 0.675428
v -581.259 2015.95 9.52127e-13
vt 0.166612 0.660446
v -625.817 1938.91 9.09495e-13
vt 0.143036 0.635206
v -651.28 1867.3 8.81073e-13
vt 0.129564 0.611746
v -678.855 1698.54 7.95808e-13
vt 0.114974 0.556458
v -678.855 1670.99 7.81597e-13
vt 0.114974 0.547431
v -661.293 1644.24 7.81597e-13
vt 0.124266 0.538667
v -685.238 1593.61 7.10543e-13
vt 0.111596 0.522083
v -672.997 1542.05 7.24754e-13
vt 0.118073 0.505189
v -643.426 1516.62 7.10543e-13
vt 0.133719 0.496859
v -643.426 1190.02 5.68434e-13
vt 0.133719 0.389861
v -668.674 1106.76 5.68434e-13
vt 0.12036 0.362585
v -641.188 449.335 2.13163e-13
vt 0.134903 0.147206
v -715.65 285.458 1.27898e-13
vt 0.0955051 0.0935189
v -715.65 236.458 1.13687e-13
vt 0.0955051 0.077466
v -705.153 194.759 8.52651e-14
vt 0.101059 0.0638051
v -693.49 194.759 8.52651e-14
vt 0.10723 0.0638051
v -693.49 156.759 7.10543e-14
vt 0.10723 0.0513559
v -669.288 127.463 5.68434e-14
vt 0.120036 0.0417581
v -647.268 115.626 5.68434e-14
vt 0.131687 0.0378803
v -607.268 115.626 5.68434e-14
vt 0.152851 0.0378803
v -558.381 97.9041 4.26326e-14
vt 0.178717 0.0320743
f 5/5/2 6/6/2 7/7/2 8/8/2 9/9/2 10/10/2 11/11/2 12/12/2 13/13/2 14/14/2 15/15/2 16/16/2 17/17/2 18/18/2 19/19/2 20/20/2 21/21/2 22/22/2 23/23/2 24/24/2 25/25/2 26/26/2 27/27/2 28/28/2 29/29/2 30/30/2 31/31/2 32/32/2 33/33/2 34/34/2 35/35/2 36/36/2 37/37/2 38/38/2 39/39/2 40/40/2 41/41/2 42/42/2 43/43/2 44/44/2 45/45/2 46/46/2 47/47/2 48/48/2 49/49/2 50/50/2 51/51/2 52/52/2 53/53/2 54/54/2 55/55/2 56/56/2 57/57/2 58/58/2 59/59/2 60/60/2 2/61/2 1/62/2 61/63/2 62/64/2 63/65/2 64/66/2 65/67/2 66/68/2 67/69/2 68/70/2 69/71/2 70/72/2 71/73/2 72/74/2 73/75/2 74/76/2 75/77/2 76/78/2 77/79/2 78/80/2 79/81/2 80/82/2 81/83/2 82/84/2 

vn 3.30754e-50 -1 -4.7226e-16
v -558.381 4.7226e-14 -100
vt 0.178717 -0.0327609
v 558.381 4.7226e-14 -100
vt 0.769596 -0.0327609
f 6/6/3 5/5/3 83/85/3 84/86/3 

vt 8.60956e-49 0
vn -1 1.92209e-33 -4.07357e-18
vt -0.0518011 0
v -558.381 97.9041 -100
vt -0.0518011 -0.0327609
vt -2.1976e-20 -0.0327609
f 5/87/4 82/88/4 85/89/4 83/90/4 

vt 0.150363 0
vn -0.34081 -0.940132 -4.45375e-16
vt 0.12285 0
v -607.268 115.626 -100
vt 0.12285 -0.0327609
vt 0.150363 -0.0327609
f 82/91/5 81/92/5 86/93/5 85/94/5 

vt 0.152851 0
vn 0 -1 -4.7226e-16
vt 0.131687 0
v -647.268 115.626 -100
vt 0.131687 -0.0327609
vt 0.152851 -0.0327609
f 81/95/6 80/96/6 87/97/6 86/98/6 

vt 0.087024 0
vn -0.473476 -0.880807 -4.17899e-16
vt 0.0737965 0
v -669.288 127.463 -100
vt 0.0737965 -0.0327609
vt 0.087024 -0.0327609
f 80/99/7 79/100/7 88/101/7 87/102/7 

vt 0.0244553 0
vn -0.770956 -0.636888 -3.03917e-16
vt 0.00434948 0
v -693.49 156.759 -100
vt 0.00434948 -0.0327609
vt 0.0244553 -0.0327609
f 79/103/8 78/104/8 89/105/8 88/106/8 

vt -0.0829415 0
vt -0.103047 0
v -693.49 194.759 -100
vt -0.103047 -0.0327609
vt -0.0829415 -0.0327609
f 78/107/4 77/108/4 90/109/4 89/110/4 

vt 0.10723 0
vt 0.101059 0
v -705.153 194.759 -100
vt 0.101059 -0.0327609
vt 0.10723 -0.0327609
f 77/111/6 76/112/6 91/113/6 90/114/6 

vt -0.0752587 0
vn -0.969744 -0.244123 -1.1924e-16
vt -0.09801 0
v -715.65 236.458 -100
vt -0.09801 -0.0327609
vt -0.0752587 -0.0327609
f 76/115/9 75/116/9 92/117/9 91/118/9 

vt -0.12511 0
vt -0.151036 0
v -715.65 285.458 -100
vt -0.151036 -0.0327609
vt -0.12511 -0.0327609
f 75/119/4 74/120/4 93/121/4 92/122/4 

vt -0.177015 0
vn -0.910423 0.413678 1.91655e-16
vt -0.272253 0
v -641.188 449.335 -100
vt -0.272253 -0.0327609
vt -0.177015 -0.0327609
f 74/123/10 73/124/10 94/125/10 93/126/10 

vt -0.231901 0
vn -0.999127 -0.0417715 -2.3797e-17
vt -0.580049 1.38778e-17
v -668.674 1106.76 -100
vt -0.580049 -0.0327609
vt -0.231901 -0.0327609
f 73/127/11 72/128/11 95/129/11 94/130/11 

vt -0.595316 1.38778e-17
vn -0.956964 0.290207 1.33155e-16
vt -0.641347 0
v -643.426 1190.02 -100
vt -0.641347 -0.0327609
vt -0.595316 -0.0327609
f 72/131/12 71/132/12 96/133/12 95/134/12 

vt -0.629638 0
vt -0.802444 0
v -643.426 1516.62 -100
vt -0.802444 -0.0327609
vt -0.629638 -0.0327609
f 71/135/4 70/136/4 97/137/4 96/138/4 

vt -0.421786 0
vn -0.65198 -0.758236 -3.60741e-16
vt -0.442421 0
v -672.997 1542.05 -100
vt -0.442421 -0.0327609
vt -0.421786 -0.0327609
f 70/139/13 69/140/13 98/141/13 97/142/13 

vt -0.766566 0
vn -0.972962 -0.230967 -1.1304e-16
vt -0.794608 -2.08167e-17
v -685.238 1593.61 -100
vt -0.794608 -0.0327609
vt -0.766566 -0.0327609
f 69/143/14 68/144/14 99/145/14 98/146/14 

vt -0.809929 -2.08167e-17
vn -0.90397 0.427597 1.98254e-16
vt -0.839558 0
v -661.293 1644.24 -100
vt -0.839558 -0.0327609
vt -0.809929 -0.0327609
f 68/147/15 67/148/15 100/149/15 99/150/15 

vt -0.65905 0
vn -0.83595 -0.548806 -2.62585e-16
vt -0.675981 0
v -678.855 1670.99 -100
vt -0.675981 -0.0327609
vt -0.65905 -0.0327609
f 67/151/16 66/152/16 101/153/16 100/154/16 

vt -0.88412 0
vt -0.898699 0
v -678.855 1698.54 -100
vt -0.898699 -0.0327609
vt -0.88412 -0.0327609
f 66/155/4 65/156/4 102/157/4 101/158/4 

vt -0.905478 0
vn -0.986912 0.161259 7.21361e-17
vt -0.995954 0
v -651.28 1867.3 -100
vt -0.995954 -0.0327609
vt -0.905478 -0.0327609
f 65/159/17 64/160/17 103/161/17 102/162/17 

vt -0.9743 0
vn -0.942206 0.335034 1.54385e-16
vt -1.01451 0
v -625.817 1938.91 -100
vt -1.01451 -0.0327609
vt -0.9743 -0.0327609
f 64/163/18 63/164/18 104/165/18 103/166/18 

vt -0.959662 0
vn -0.865649 0.500651 2.32911e-16
vt -1.00675 0
v -581.259 2015.95 -100
vt -1.00675 -0.0327609
vt -0.959662 -0.0327609
f 63/167/19 62/168/19 105/169/19 104/170/19 

vt -0.635973 0
vn -0.457329 0.889298 4.18117e-16
vt -0.688883 0
v -492.329 2061.69 -100
vt -0.688883 -0.0327609
vt -0.635973 -0.0327609
f 62/171/20 61/172/20 106/173/20 105/174/20 

vt -0.761252 0
vn -0.532007 0.84674 3.97714e-16
vt -0.85649 6.93889e-18
vt -0.85649 -0.0327609
vt -0.761252 -0.0327609
f 61/175/21 1/176/21 4/177/21 106/178/21 

v 558.381 115.626 -100
v 579.117 127.709 -100
v 629.117 127.709 -100
v 629.117 194.709 -100
v 695.221 239.768 -100
v 747.68 259.364 -100
v 778.594 270.912 -100
v 778.594 376.912 -100
v 749.513 492.304 -100
v 769.84 539.078 -100
v 757.042 581.176 -100
v 769.77 648.991 -100
v 810.625 1026.79 -100
v 810.625 1206.79 -100
v 774.616 1378.04 -100
v 704.882 1641.99 -100
v 704.882 1743.99 -100
v 620.107 1894.79 -100
v 538.324 2081.68 -100
v 483.877 2137.53 -100
v 257.557 2214.35 -100
v 152.556 2234.93 -100
v 118.556 2234.93 -100
v 43.1476 2250.51 -100
v 24.2184 2274.7 -100
v -7.80561 2320.64 -100
v -7.80561 2393.64 -100
v 52.4274 2492.78 -100
v 52.4274 2668.78 -100
v 24.2184 2668.78 -100
v 24.2184 2773.78 -100
v -59.8282 2943.06 -100
v -127.452 2975.5 -100
v -186.996 2992.77 -100
v -255.996 2992.77 -100
v -367.141 2972.38 -100
v -461.736 2901.84 -100
v -529.882 2801.86 -100
v -537.86 2727.28 -100
v -530.935 2654.61 -100
v -513.417 2608.85 -100
v -513.417 2586.22 -100
v -506.943 2568.35 -100
v -520.943 2568.35 -100
v -526.027 2558.6 -100
v -516.969 2544.21 -100
v -516.969 2530.54 -100
v -506.943 2530.54 -100
v -506.943 2479.54 -100
v -493.847 2439.64 -100
v -479.847 2439.64 -100
v -445.767 2293.56 -100
v -403.791 2255 -100
v -350.581 2229.51 -100
f 83/5/2 84/6/2 107/7/2 108/8/2 109/9/2 110/10/2 111/11/2 112/12/2 113/13/2 114/14/2 115/15/2 116/16/2 117/17/2 118/18/2 119/19/2 120/20/2 121/21/2 122/22/2 123/23/2 124/24/2 125/25/2 126/26/2 127/27/2 128/28/2 129/29/2 130/30/2 131/31/2 132/32/2 133/33/2 134/34/2 135/35/2 136/36/2 137/37/2 138/38/2 139/39/2 140/40/2 141/41/2 142/42/2 143/43/2 144/44/2 145/45/2 146/46/2 147/47/2 148/48/2 149/49/2 150/50/2 151/51/2 152/52/2 153/53/2 154/54/2 155/55/2 156/56/2 157/57/2 158/58/2 159/59/2 160/60/2 3/61/2 4/62/2 106/63/2 105/64/2 104/65/2 103/66/2 102/67/2 101/68/2 100/69/2 99/70/2 98/71/2 97/72/2 96/73/2 95/74/2 94/75/2 93/76/2 92/77/2 91/78/2 90/79/2 89/80/2 88/81/2 87/82/2 86/83/2 85/84/2 

vt 0.0611779 0
vn 1 -1.92209e-33 4.07357e-18
vt 0 0
vt 2.1976e-20 -0.0327609
vt 0.0611779 -0.0327609
f 7/179/22 6/180/22 84/181/22 107/182/22 

vt 0.708451 0
vn 0.503442 -0.864029 -4.05996e-16
vt 0.695753 0
vt 0.695753 -0.0327609
vt 0.708451 -0.0327609
f 8/183/23 7/184/23 107/185/23 108/186/23 

vt 0.807022 0
vt 0.780567 0
vt 0.780567 -0.0327609
vt 0.807022 -0.0327609
f 9/187/6 8/188/6 108/189/6 109/190/6 

vt 0.103021 0
vt 0.0675708 0
vt 0.0675708 -0.0327609
vt 0.103021 -0.0327609
f 10/191/22 9/192/22 109/193/22 110/194/22 

vt 0.767189 -3.46945e-17
vn 0.563245 -0.82629 -3.87929e-16
vt 0.724861 0
vt 0.724861 -0.0327609
vt 0.767189 -0.0327609
f 11/195/24 10/196/24 110/197/24 111/198/24 

vt 0.862786 0
vn 0.349926 -0.936777 -4.40977e-16
vt 0.833157 -3.46945e-17
vt 0.833157 -0.0327609
vt 0.862786 -0.0327609
f 12/199/25 11/200/25 111/201/25 112/202/25 

vt 0.880246 1.38778e-17
vt 0.880246 -0.0327609
f 13/203/25 12/199/25 112/202/25 113/204/25 

vt 0.199424 1.38778e-17
vt 0.14334 1.38778e-17
vt 0.14334 -0.0327609
vt 0.199424 -0.0327609
f 14/205/22 13/206/22 113/207/22 114/208/22 

vt 0.0397993 -6.93889e-18
vn 0.969681 0.244373 1.19358e-16
vt -0.0231636 1.38778e-17
vt -0.0231636 -0.0327609
vt 0.0397993 -0.0327609
f 15/209/26 14/210/26 114/211/26 115/212/26 

vt 0.612923 0
vn 0.917138 -0.398569 -1.84492e-16
vt 0.585938 0
vt 0.585938 -0.0327609
vt 0.612923 -0.0327609
f 16/213/27 15/214/27 115/215/27 116/216/27 

vt 0.0397783 -6.93889e-18
vn 0.956763 0.29087 1.41264e-16
vt 0.0164979 -6.93889e-18
vt 0.0164979 -0.0327609
vt 0.0397783 -0.0327609
f 17/217/28 16/218/28 116/219/28 117/220/28 

vt 0.500086 0
vn 0.982839 -0.184468 -8.31131e-17
vt 0.463578 0
vt 0.463578 -0.0327609
vt 0.500086 -0.0327609
f 18/221/29 17/222/29 117/223/29 118/224/29 

vt 0.637216 0
vn 0.994204 -0.107513 -4.67241e-17
vt 0.436158 0
vt 0.436158 -0.0327609
vt 0.637216 -0.0327609
f 19/225/30 18/226/30 118/227/30 119/228/30 

vt 0.638513 -6.93889e-18
vt 0.543274 -6.93889e-18
vt 0.543274 -0.0327609
vt 0.638513 -0.0327609
f 20/229/22 19/230/22 119/231/22 120/232/22 

vt 0.531623 -6.93889e-18
vn 0.978601 0.205766 1.01161e-16
vt 0.439031 -6.93889e-18
vt 0.439031 -0.0327609
vt 0.531623 -0.0327609
f 21/233/31 20/234/31 120/235/31 121/236/31 

vt 0.623574 -6.93889e-18
vn 0.966826 0.255436 1.24571e-16
vt 0.479129 -6.93889e-18
vt 0.479129 -0.0327609
vt 0.623574 -0.0327609
f 22/237/32 21/238/32 121/239/32 122/240/32 

vt 0.922745 -6.93889e-18
vt 0.868776 -6.93889e-18
vt 0.868776 -0.0327609
vt 0.922745 -0.0327609
f 23/241/22 22/242/22 122/243/22 123/244/22 

vt 0.480786 2.08167e-17
vn 0.871705 0.490031 2.34973e-16
vt 0.389252 -6.93889e-18
vt 0.389252 -0.0327609
vt 0.480786 -0.0327609
f 24/245/33 23/246/33 123/247/33 124/248/33 

vt 0.704761 -6.93889e-18
vn 0.916123 0.400897 1.9306e-16
vt 0.596824 2.08167e-17
vt 0.596824 -0.0327609
vt 0.704761 -0.0327609
f 25/249/34 24/250/34 124/251/34 125/252/34 

vt 0.300152 -6.93889e-18
vn 0.71606 0.698039 3.32573e-16
vt 0.258882 -6.93889e-18
vt 0.258882 -0.0327609
vt 0.300152 -0.0327609
f 26/253/35 25/254/35 125/255/35 126/256/35 

vt -0.201487 0
vn 0.321399 0.946944 4.48513e-16
vt -0.327942 0
vt -0.327942 -0.0327609
vt -0.201487 -0.0327609
f 27/257/36 26/258/36 126/259/36 127/260/36 

vt -0.317018 0
vn 0.192381 0.98132 4.64222e-16
vt -0.373631 0
vt -0.373631 -0.0327609
vt -0.317018 -0.0327609
f 28/261/37 27/262/37 127/263/37 128/264/37 

vt -0.536884 0
vn 0 1 4.7226e-16
vt -0.554874 0
vt -0.554874 -0.0327609
vt -0.536884 -0.0327609
f 29/265/38 28/266/38 128/267/38 129/268/38 

vt -0.245872 0
vn 0.202261 0.979332 4.63323e-16
vt -0.286613 0
vt -0.286613 -0.0327609
vt -0.245872 -0.0327609
f 30/269/39 29/270/39 129/271/39 130/272/39 

vt 0.647806 -6.93889e-18
vn 0.787577 0.616216 2.94222e-16
vt 0.631553 -6.93889e-18
vt 0.631553 -0.0327609
vt 0.647806 -0.0327609
f 31/273/40 30/274/40 130/275/40 131/276/40 

vt 0.738484 -6.93889e-18
vn 0.820353 0.571858 2.73407e-16
vt 0.708854 -6.93889e-18
vt 0.708854 -0.0327609
vt 0.738484 -0.0327609
f 32/277/41 31/278/41 131/279/41 132/280/41 

vt 1.26648 0
vt 1.22785 0
vt 1.22785 -0.0327609
vt 1.26648 -0.0327609
f 33/281/22 32/282/22 132/283/22 133/284/22 

vt 1.3878 0
vn 0.854623 -0.51925 -2.4174e-16
vt 1.32642 0
vt 1.32642 -0.0327609
vt 1.3878 -0.0327609
f 34/285/42 33/286/42 133/287/42 134/288/42 

vt 1.41205 0
vt 1.31893 0
vt 1.31893 -0.0327609
vt 1.41205 -0.0327609
f 35/289/22 34/290/22 134/291/22 135/292/22 

vt -0.48697 0
vt -0.501895 0
vt -0.501895 -0.0327609
vt -0.48697 -0.0327609
f 36/293/38 35/294/38 135/295/38 136/296/38 

vt 1.46761 0
vt 1.46761 -0.0327609
f 37/297/22 36/289/22 136/292/22 137/298/22 

vt 1.19796 -6.93889e-18
vn 0.895684 0.444691 2.13658e-16
vt 1.09796 -6.93889e-18
vt 1.09796 -0.0327609
vt 1.19796 -0.0327609
f 38/299/43 37/300/43 137/301/43 138/302/43 

vt 0.31414 -6.93889e-18
vn 0.432474 0.901647 4.27573e-16
vt 0.274458 -6.93889e-18
vt 0.274458 -0.0327609
vt 0.31414 -0.0327609
f 39/303/44 38/304/44 138/305/44 139/306/44 

vt 0.0808795 0
vn 0.278649 0.960393 4.5469e-16
vt 0.0480753 0
vt 0.0480753 -0.0327609
vt 0.0808795 -0.0327609
f 40/307/45 39/308/45 139/309/45 140/310/45 

vt -0.338709 0
vt -0.375216 0
vt -0.375216 -0.0327609
vt -0.338709 -0.0327609
f 41/311/38 40/312/38 140/313/38 141/314/38 

vt -0.559117 0
vn -0.180462 0.983582 4.63771e-16
vt -0.618905 0
vt -0.618905 -0.0327609
vt -0.559117 -0.0327609
f 42/315/46 41/316/46 141/317/46 142/318/46 

vt -1.10208 0
vn -0.597787 0.801655 3.76155e-16
vt -1.16452 0
vt -1.16452 -0.0327609
vt -1.10208 -0.0327609
f 43/319/47 42/320/47 142/321/47 143/322/47 

vt -1.33414 0
vn -0.826326 0.563192 2.62607e-16
vt -1.39816 0
vt -1.39816 -0.0327609
vt -1.33414 -0.0327609
f 44/323/48 43/324/48 143/325/48 144/326/48 

vt -1.45498 0
vn -0.994327 0.106364 4.61812e-17
vt -1.49467 0
vt -1.49467 -0.0327609
vt -1.45498 -0.0327609
f 45/327/49 44/328/49 144/329/49 145/330/49 

vt -1.37989 0
vn -0.995491 -0.0948523 -4.88502e-17
vt -1.41852 0
vt -1.41852 -0.0327609
vt -1.37989 -0.0327609
f 46/331/50 45/332/50 145/333/50 146/334/50 

vt -1.21671 0
vn -0.933904 -0.357525 -1.72649e-16
vt -1.24263 0
vt -1.24263 -0.0327609
vt -1.21671 -0.0327609
f 47/335/51 46/336/51 146/337/51 147/338/51 

vt -1.36837 0
vt -1.38034 0
vt -1.38034 -0.0327609
vt -1.36837 -0.0327609
f 48/339/4 47/340/4 147/341/4 148/342/4 

vt -1.20745 0
vn -0.940171 -0.340704 -1.64731e-16
vt -1.21751 0
vt -1.21751 -0.0327609
vt -1.20745 -0.0327609
f 49/343/52 48/344/52 148/345/52 149/346/52 

vt -0.198525 0
vt -0.205932 0
vt -0.205932 -0.0327609
vt -0.198525 -0.0327609
f 50/347/38 49/348/38 149/349/38 150/350/38 

vt -1.291 -6.93889e-18
vn -0.886778 0.462196 2.14664e-16
vt -1.29682 0
vt -1.29682 -0.0327609
vt -1.291 -0.0327609
f 51/351/53 50/352/53 150/353/53 151/354/53 

vt -1.03222 0
vn -0.846211 -0.532849 -2.5509e-16
vt -1.04121 -6.93889e-18
vt -1.04121 -0.0327609
vt -1.03222 -0.0327609
f 52/355/54 51/356/54 151/357/54 152/358/54 

vt -1.33891 0
vt -1.34615 0
vt -1.34615 -0.0327609
vt -1.33891 -0.0327609
f 53/359/4 52/360/4 152/361/4 153/362/4 

vt 0.205932 0
vt 0.200628 0
vt 0.200628 -0.0327609
vt 0.205932 -0.0327609
f 54/363/6 53/364/6 153/365/6 154/366/6 

vt -1.31193 0
vt -1.31193 -0.0327609
f 55/367/4 54/359/4 154/362/4 155/368/4 

vt -1.16008 0
vn -0.950139 -0.311828 -1.51134e-16
vt -1.1823 0
vt -1.1823 -0.0327609
vt -1.16008 -0.0327609
f 56/369/55 55/370/55 155/371/55 156/372/55 

vt 0.220269 0
vt 0.212862 0
vt 0.212862 -0.0327609
vt 0.220269 -0.0327609
f 57/373/6 56/374/6 156/375/6 157/376/6 

vt -1.12765 0
vn -0.973848 -0.227199 -1.11264e-16
vt -1.20701 0
vt -1.20701 -0.0327609
vt -1.12765 -0.0327609
f 58/377/56 57/378/56 157/379/56 158/380/56 

vt -0.615349 -6.93889e-18
vn -0.676537 -0.736408 -3.50532e-16
vt -0.645508 -6.93889e-18
vt -0.645508 -0.0327609
vt -0.615349 -0.0327609
f 59/381/57 58/382/57 158/383/57 159/384/57 

vt -0.249288 0
vn -0.432018 -0.901865 -4.27675e-16
vt -0.280505 0
vt -0.280505 -0.0327609
vt -0.249288 -0.0327609
f 60/385/58 59/386/58 159/387/58 160/388/58 

vt -1.14918 0
vt -1.17963 0
vt -1.17963 -0.0327609
vt -1.14918 -0.0327609
f 2/389/4 60/390/4 160/391/4 3/392/4 

